<svg width="144" height="145" viewBox="0 0 144 145" fill="none" xmlns="http://www.w3.org/2000/svg">
<path d="M12 72.5C12 44.2157 12 30.0736 20.7868 21.2868C29.5736 12.5 43.7157 12.5 72 12.5C100.284 12.5 114.427 12.5 123.213 21.2868C132 30.0736 132 44.2157 132 72.5C132 100.784 132 114.927 123.213 123.713C114.427 132.5 100.284 132.5 72 132.5C43.7157 132.5 29.5736 132.5 20.7868 123.713C12 114.927 12 100.784 12 72.5Z" stroke="#FC930A" stroke-width="9"/>
<path d="M96 60.5C102.627 60.5 108 55.1274 108 48.5C108 41.8726 102.627 36.5 96 36.5C89.3726 36.5 84 41.8726 84 48.5C84 55.1274 89.3726 60.5 96 60.5Z" stroke="#FC930A" stroke-width="9"/>
<path d="M12 75.5006L22.5095 66.305C27.9772 61.5212 36.2177 61.7954 41.3549 66.9326L67.0932 92.6708C71.2164 96.7946 77.7072 97.3568 82.4784 94.0034L84.2676 92.7464C91.1328 87.9212 100.421 88.4804 106.659 94.094L126 111.501" stroke="#FC930A" stroke-width="9" stroke-linecap="round"/>
</svg>
