<svg width="144" height="144" viewBox="0 0 144 144" fill="none" xmlns="http://www.w3.org/2000/svg">
<path d="M132 72C132 100.284 132 114.427 123.213 123.213C114.427 132 100.284 132 72 132C43.7157 132 29.5736 132 20.7868 123.213C12 114.427 12 100.284 12 72C12 43.7157 12 29.5736 20.7868 20.7868C29.5736 12 43.7157 12 72 12" stroke="#FC930A" stroke-width="9" stroke-linecap="round"/>
<path d="M12 75.0006L22.5095 65.805C27.9772 61.0212 36.2177 61.2954 41.3549 66.4326L67.0932 92.1708C71.2164 96.2946 77.7072 96.8568 82.4784 93.5034L84.2676 92.2464C91.1328 87.4212 100.421 87.9804 106.659 93.594L126 111.001" stroke="#FC930A" stroke-width="9" stroke-linecap="round"/>
<path d="M111.372 17.6124L113.875 15.1098C118.021 10.9634 124.744 10.9634 128.89 15.1098C133.037 19.2562 133.037 25.9789 128.89 30.1252L126.388 32.6278M111.372 17.6124C111.372 17.6124 111.685 22.9303 116.377 27.6227C121.07 32.315 126.388 32.6278 126.388 32.6278M111.372 17.6124L88.365 40.6197C86.8062 42.1781 86.0274 42.9573 85.3572 43.8164C84.567 44.8298 83.889 45.9264 83.3364 47.0866C82.8672 48.0702 82.5192 49.1155 81.822 51.2062L79.5906 57.9M126.388 32.6278L103.38 55.6352C101.822 57.1935 101.043 57.9727 100.184 58.6428C99.1704 59.4333 98.0736 60.111 96.9132 60.6636C95.9298 61.1328 94.8846 61.4808 92.7936 62.178L86.1 64.4094M79.5906 57.9L78.147 62.2314C77.8038 63.2598 78.072 64.3944 78.8388 65.1612C79.6056 65.928 80.7402 66.1962 81.7686 65.853L86.1 64.4094M79.5906 57.9L86.1 64.4094" stroke="#FC930A" stroke-width="9"/>
</svg>
