<svg width="145" height="145" viewBox="0 0 145 145" fill="none" xmlns="http://www.w3.org/2000/svg">
<path d="M72.5 96.5C82.4411 96.5 90.5 88.4411 90.5 78.5C90.5 68.5589 82.4411 60.5 72.5 60.5C62.5589 60.5 54.5 68.5589 54.5 78.5C54.5 88.4411 62.5589 96.5 72.5 96.5Z" stroke="#FC930A" stroke-width="9"/>
<path d="M59.1667 126.5H85.8332C104.56 126.5 113.923 126.5 120.649 122.088C123.56 120.177 126.06 117.723 128.006 114.864C132.5 108.261 132.5 99.0674 132.5 80.6816C132.5 62.2964 132.5 53.1033 128.006 46.4996C126.06 43.6408 123.56 41.1862 120.649 39.2761C116.326 36.4408 110.916 35.4274 102.632 35.0652C98.6786 35.0652 95.2754 32.1241 94.5002 28.3182C93.3368 22.6093 88.2314 18.5 82.3022 18.5H62.6978C56.7683 18.5 51.6629 22.6093 50.5 28.3182C49.7247 32.1241 46.3211 35.0652 42.368 35.0652C34.084 35.4274 28.6733 36.4408 24.3514 39.2761C21.4397 41.1862 18.9397 43.6408 16.9941 46.4996C12.5 53.1033 12.5 62.2964 12.5 80.6816C12.5 99.0674 12.5 108.261 16.9941 114.864C18.9397 117.723 21.4397 120.177 24.3514 122.088C31.0774 126.5 40.4405 126.5 59.1667 126.5Z" stroke="#FC930A" stroke-width="9"/>
<path d="M114.5 60.5H108.5" stroke="#FC930A" stroke-width="9" stroke-linecap="round"/>
</svg>
